<svg xmlns="http://www.w3.org/2000/svg" viewBox="0 0 4680 3120"><defs><clipPath id="a"><path fill="none" d="M1584 839.56c-1.83-11.36 5.29-22.79 15.07-28.86s21.69-7.64 33.19-7.71a146.25 146.25 0 0 1 73.74 19.63c6.94 4 13.7 8.78 18.14 15.45 6 8.93 7 20.11 8.38 30.75a388.33 388.33 0 0 0 11.19 55.4c3.2 11.5 7.87 24 18.49 29.43a55.15 55.15 0 0 1-37.14-10.1 48.83 48.83 0 0 0 14.39 25.05 48.22 48.22 0 0 1-24.27-8.47 5.06 5.06 0 0 1 1 5.59A59 59 0 0 1 1664 949.3c-6.34 7-8.27 17.05-14.11 24.47-6.47 8.21-17.13 12.26-27.56 12.93s-20.81-1.62-31-4.09a17.55 17.55 0 0 0-4.48-.68c-2.34.06-4.53 1.06-6.69 2a82.83 82.83 0 0 1-47.65 4.64 28.17 28.17 0 0 0 5.58-18.39 48.14 48.14 0 0 1-47.51-3.85c3.85-5.58 10.83-8.39 14.64-14s3.73-13 3.49-19.81l-1-30c-.43-12.29-.76-25.13 4.45-36.27 6-12.69 18.54-21.41 32-25.27s27.82-3.38 41.73-1.6Z"/></clipPath><clipPath id="b"><path fill="none" d="m1681.15 1112.05 30 6.26c40.79 8.51 106.38 32.21 130 69.43l91.85 212.91-138.15 46.18-.14 238.9-365.19 4 6.64-232.3-167-39.12L1385.67 1201c26.48-53.76 100.67-79.74 156.57-82.39Z"/></clipPath><clipPath id="c"><path fill="none" d="M1523 1119c37.68-17 65.12-121.69 60.71-162.81l69.29 67.51c-3.07 28.16 12.28 49.48 26 74.24 7.17 12.9 15.87 26.4 29.72 31.51-22.5 25.84-58.93 36.87-93.15 35.16S1542.79 1147 1523 1119Z"/></clipPath><clipPath id="d"><path fill="none" d="M1532.07 940.07c11.55-5.89 30.23 2.28 32.8 13.09l1.61 17 10 1.24-1.22-28.56s17.88-21.58 20.42-47.7q.85-2.29 1.5-4.65a33.29 33.29 0 0 0 32.62 14.28 49.4 49.4 0 0 1-11.74-14.3c9.66 9 22.22 14.5 35.08 17.57s26.15 3.89 39.35 4.7c-8.3-6.11-17-12.91-22.81-21.18l21.32 7.28c5.61 1.93 8.82-2.37 14.71-1.59.24 9 4.74 39.35-1.08 66.44-5.06 23.54 7.39 61-15.63 87.18-17.54 20-47.29 23.69-70.15 10.14-19.89-11.77-44.9-31.76-53.69-61 0 0-15.64 9-25.44-8.2s-19.19-45.81-7.65-51.74Z"/></clipPath><clipPath id="e"><path fill="none" d="m1875.39 1832.35-58.54 648.25h154.25l154.25-648.25s-172.93-116.35-249.96 0Z"/></clipPath><clipPath id="f"><path fill="none" d="M2082 1576.83c-34.22-14-155.6 18-286.14 60.29l2-190.74-1.07-139.33-38.37-.93-4.29-170.7c-.23-8.91-6.78-16.72-15.64-17.67a17.6 17.6 0 0 0-19.47 17.89l4.27 169.64-187.91-4.52 2.67-177.5c.13-8.91-6.1-17-14.92-18.28a17.59 17.59 0 0 0-20.17 17.09l-2.68 177.85-16.33-.4-38.36 144.29-34.43 303.38a149.2 149.2 0 0 0 6.83 64.47c16.06 47.76 28.47 116.46 111.34 126 233 26.81 433.36-135.12 433.36-135.12l395 605.47 126.57-78.78s-283.57-703.88-402.26-752.4Z"/></clipPath></defs><g data-name="4" fill="#000000" class="color000 svgShape"><path fill="#f7d88b" d="M3666.73 2118.58H1037.05a239.42 239.42 0 0 1-216.94-138.22c-24.81-53.18-42.34-109.08-46.06-166.1-7.12-109.3 31.84-225.09 117.51-293.33 75.39-60 175-77 267.19-105s189.13-77.93 221.55-168.73c46.48-130.14-60.46-260-96.92-393.31-42.6-155.74 22.81-335 155.7-426.72s323.72-89.26 454.21 5.83c84.28 61.41 140.22 153 203.68 235.77s143.38 162.53 245.91 181.59c136.11 25.32 265-62 375.68-145.25s238.46-171.51 375-148.34c86.26 14.64 161.65 75.46 201.09 153.56s44.34 171.41 20.8 255.68c-19.53 69.92-57.28 133.4-80.5 202.19s-30 149.36 9.82 210c50.13 76.34 125.59 124.92 214 148s181.81 32.38 262.75 74.65c81.84 42.75 145.66 118.78 173.56 206.79.87 2.75 1.71 5.56 2.53 8.41 43.57 151.75-72.98 302.53-230.88 302.53Z" class="colorf7d88b svgShape"/><ellipse cx="2316.92" cy="2665.23" fill="#f7d88b" rx="1308.3" ry="36.47" class="colorf7d88b svgShape"/><path fill="#bcbcbc" d="M2978.35 1474.42c-17.34-3.05-40.28-19.46-79.32-48.19-45.34-33.37-101.75-74.9-151.44-88.09-75.58-20.07-117.82 65.7-119.58 69.35l-26.88-12.81c18.45-38.75 74.38-106.51 154.1-85.31 55.14 14.64 114.09 58 161.45 92.89 27.29 20.08 55.5 40.86 66.82 42.83Z" class="colorbcbcbc svgShape"/><path fill="#e2e2e2" d="M3055.57 1473.72c-33-11-74.44-41.55-118.36-73.82-48.49-35.64-103.45-76-135.16-78.06-22-1.43-50.67 15.31-82.83 48.33a431.38 431.38 0 0 0-44.13 53.81l-24.74-16.56a458.92 458.92 0 0 1 47.54-58c39-40 74.7-59.25 106.06-57.27 40.41 2.57 94.07 42 150.89 83.77 40.14 29.5 81.65 60 110.2 69.58Z" class="colore2e2e2 svgShape"/><path fill="#f46f5c" d="M2573.18 1383.95h216.55v50.44h-216.55z" transform="rotate(-.1 2731.758 1434.78)" class="colorf46f5c svgShape"/><path fill="#f7e2b2" d="M2489.53 1384.1h216.56v200.76h-216.56z" transform="rotate(-.11 2493.605 1424.372)" class="colorf7e2b2 svgShape"/><path fill="#e25b4d" d="m3361.42 1885.5-335.24.58-.7-389.06 335.25-.6.69 389.08z" class="colore25b4d svgShape"/><path fill="#d34e40" d="M2544.8 1433.94h773.37v453.19H2544.8z" transform="rotate(-.1 3017.997 1710.049)" class="colord34e40 svgShape"/><path fill="#f7e2b2" d="m2735.31 1710.89-274.2.5-.49-276.62 274.19-.48.5 276.6z" class="colorf7e2b2 svgShape"/><path fill="#e25b4d" d="m2819.94 1888.24-389.06.7-.7-389.07 389.06-.69.7 389.06z" class="colore25b4d svgShape"/><path fill="#f46f5c" d="m2597.8 1499.58-167.62.3.34 194.53c-.19-107.41 74.71-194.68 167.28-194.83ZM2430.52 1694.41l.36 194.53 167.62-.29c-92.58.16-167.78-86.8-167.98-194.24Z" class="colorf46f5c svgShape"/><path fill="#f46f5c" d="M2597.8 1499.58c92.58-.17 167.78 86.79 168 194.23l-.34-194.54ZM2598.5 1888.65l167.62-.3-.35-194.54c.23 107.43-74.7 194.66-167.27 194.84Z" class="colorf46f5c svgShape"/><path fill="#ffffff" d="M2598.45 1865.74c-82 .16-148.92-76.71-149.09-171.37s66.45-171.76 148.49-171.9 148.91 76.73 149.08 171.37-66.44 171.76-148.48 171.9Zm-.58-330.51c-75 .13-135.9 71.51-135.74 159.13s61.3 158.75 136.3 158.63 135.9-71.5 135.74-159.12-61.31-158.78-136.3-158.64Z" opacity=".6" class="colorfff svgShape"/><path fill="#ffffff" d="M2598.39 1826.19c-63.25.09-114.79-59-114.93-131.88s51.21-132.17 114.45-132.26 114.79 59 114.92 131.86-51.2 132.15-114.44 132.28Zm-.46-251.4c-56.19.1-101.83 53.71-101.71 119.51s45.94 119.22 102.14 119.13 101.83-53.7 101.72-119.49-45.94-119.25-102.15-119.15Z" opacity=".6" class="colorfff svgShape"/><path fill="#ffffff" d="M2598.32 1787.13c-44.69.08-81.11-41.59-81.2-92.87s36.18-93.08 80.87-93.17 81.1 41.58 81.19 92.87-36.18 93.1-80.86 93.17Zm-.31-173.28c-37.66.07-68.21 36.12-68.14 80.4s30.77 80.18 68.42 80.12 68.22-36.12 68.14-80.38-30.77-80.22-68.43-80.14Z" opacity=".6" class="colorfff svgShape"/><path fill="#ffffff" d="M2598.25 1750.79c-27.42 0-49.77-25.34-49.82-56.59s22.19-56.73 49.61-56.77 49.78 25.34 49.84 56.59-22.21 56.71-49.63 56.77Zm-.18-100.61c-20.39 0-36.93 19.78-36.89 44s16.66 43.91 37.05 43.87 36.93-19.78 36.89-44-16.67-43.91-37.05-43.87Z" opacity=".6" class="colorfff svgShape"/><path fill="#ffffff" d="M2598.2 1720.16c-12.87 0-23.35-11.64-23.38-26s10.42-26.06 23.29-26.09 23.34 11.65 23.37 26-10.42 26.07-23.28 26.09Zm-.07-39.33c-5.83 0-10.57 6-10.55 13.3s4.76 13.29 10.59 13.27 10.56-6 10.55-13.31-4.72-13.29-10.59-13.26Z" opacity=".6" class="colorfff svgShape"/><path fill="#e2e2e2" d="M2596.1 1692.92h-.17a23 23 0 0 1-17.72-8.89l-125.29-156.12 9.95-8 125.29 156.13a10.19 10.19 0 0 0 7.84 4.12 10.41 10.41 0 0 0 7.86-4l129.08-156.82 9.84 8.11-129.07 156.82a23 23 0 0 1-17.61 8.65ZM2463.37 1870.72l-9.85-8.11 129.07-156.8a22.36 22.36 0 0 1 35.51.26l125.29 156.1-9.95 8-125.29-156.1a10.24 10.24 0 0 0-7.86-4.13 10.58 10.58 0 0 0-7.84 4Z" class="colore2e2e2 svgShape"/><path fill="#e2e2e2" d="M2472.06 1546.18a21.78 21.78 0 0 0 0-27.57c-6.57-7.6-17.21-7.57-23.75.06s-6.52 20 0 27.56 17.2 7.57 23.75-.05ZM2746.9 1545.69c6.54-7.62 6.51-20-.06-27.57s-17.2-7.57-23.75.06a21.74 21.74 0 0 0 0 27.54c6.63 7.62 17.26 7.6 23.81-.03ZM2472.63 1869.84c6.55-7.62 6.52-20-.05-27.57s-17.2-7.58-23.75 0-6.51 20 .05 27.57 17.22 7.62 23.75 0ZM2747.47 1869.34c6.54-7.62 6.53-20 0-27.56s-17.2-7.57-23.75 0-6.52 20 0 27.58 17.2 7.64 23.75-.02Z" class="colore2e2e2 svgShape"/><path fill="#e2e2e2" d="M2819.26 1498.74h498.64v24.09h-498.64z" transform="rotate(-.1 3184.28 1566.954)" class="colore2e2e2 svgShape"/><path fill="#e2e2e2" d="M2819.79 1796.11h498.64v24.08h-498.64z" transform="rotate(-.1 3184.01 1876.352)" class="colore2e2e2 svgShape"/><path fill="#bcbcbc" d="M3444 1474.42c-17.34-3.05-40.27-19.46-79.32-48.19-45.34-33.37-101.75-74.9-151.44-88.09-75.58-20.07-117.82 65.7-119.58 69.35l-26.88-12.81c18.45-38.75 74.38-106.51 154.1-85.31 55.15 14.64 114.09 58 161.45 92.89 27.29 20.08 55.51 40.86 66.82 42.83Z" class="colorbcbcbc svgShape"/><path fill="#e2e2e2" d="M3521.2 1473.72c-33-11-74.45-41.55-118.37-73.82-48.49-35.64-103.45-76-135.16-78.06-22-1.43-50.67 15.31-82.83 48.33a432.45 432.45 0 0 0-44.13 53.81l-24.71-16.56a458.92 458.92 0 0 1 47.54-58c39-40 74.7-59.25 106.06-57.27 40.41 2.57 94.07 42 150.89 83.77 40.14 29.5 81.65 60 110.2 69.58Z" class="colore2e2e2 svgShape"/><path fill="#f46f5c" d="M3038.8 1383.95h216.55v50.44H3038.8z" transform="rotate(-.1 3207.313 1435.194)" class="colorf46f5c svgShape"/><path fill="#f7e2b2" d="M2955.15 1384.1h216.56v200.76h-216.56z" transform="rotate(-.11 2936.345 1424.797)" class="colorf7e2b2 svgShape"/><path fill="#e25b4d" d="m3827.04 1885.5-335.24.58-.7-389.06 335.25-.6.69 389.08z" class="colore25b4d svgShape"/><path fill="#f46f5c" d="M3010.42 1433.94h773.37v453.19h-773.37z" transform="rotate(-.1 3493.552 1710.464)" class="colorf46f5c svgShape"/><path fill="#f7e2b2" d="m3200.93 1710.89-274.2.5-.49-276.62 274.19-.48.5 276.6z" class="colorf7e2b2 svgShape"/><path fill="#e25b4d" d="m3285.56 1888.24-389.06.7-.7-389.07 389.07-.69.69 389.06z" class="colore25b4d svgShape"/><path fill="#f46f5c" d="m3063.43 1499.58-167.63.3.34 194.53c-.14-107.41 74.71-194.68 167.29-194.83ZM2896.14 1694.41l.36 194.53 167.62-.29c-92.58.16-167.78-86.8-167.98-194.24ZM3063.43 1499.58c92.57-.17 167.77 86.79 168 194.23l-.34-194.54ZM3064.12 1888.65l167.62-.3-.35-194.54c.19 107.43-74.7 194.66-167.27 194.84Z" class="colorf46f5c svgShape"/><path fill="#ffffff" d="M3064.07 1865.74c-82 .16-148.91-76.71-149.09-171.37s66.45-171.76 148.49-171.9 148.91 76.73 149.08 171.37-66.44 171.76-148.48 171.9Zm-.58-330.51c-75 .13-135.9 71.51-135.74 159.13s61.3 158.75 136.3 158.63 135.9-71.5 135.74-159.12-61.31-158.78-136.3-158.64Z" opacity=".6" class="colorfff svgShape"/><path fill="#ffffff" d="M3064 1826.19c-63.25.09-114.79-59-114.93-131.88s51.21-132.17 114.45-132.26 114.79 59 114.92 131.86-51.19 132.15-114.44 132.28Zm-.46-251.4c-56.19.1-101.83 53.71-101.71 119.51s45.94 119.22 102.14 119.13 101.83-53.7 101.72-119.49-45.93-119.25-102.14-119.15Z" opacity=".6" class="colorfff svgShape"/><path fill="#ffffff" d="M3063.94 1787.13c-44.69.08-81.11-41.59-81.2-92.87s36.18-93.08 80.87-93.17 81.11 41.58 81.19 92.87-36.18 93.1-80.86 93.17Zm-.31-173.28c-37.65.07-68.21 36.12-68.14 80.4s30.77 80.18 68.42 80.12 68.22-36.12 68.15-80.38-30.78-80.22-68.43-80.14Z" opacity=".6" class="colorfff svgShape"/><path fill="#ffffff" d="M3063.87 1750.79c-27.42 0-49.77-25.34-49.82-56.59s22.19-56.73 49.61-56.77 49.78 25.34 49.84 56.59-22.21 56.71-49.63 56.77Zm-.18-100.61c-20.39 0-36.93 19.78-36.89 44s16.66 43.91 37 43.87 36.93-19.78 36.89-44-16.61-43.91-37-43.87Z" opacity=".6" class="colorfff svgShape"/><path fill="#ffffff" d="M3063.82 1720.16c-12.87 0-23.35-11.64-23.38-26s10.42-26.06 23.29-26.09 23.34 11.65 23.37 26-10.42 26.07-23.28 26.09Zm-.07-39.33c-5.83 0-10.57 6-10.55 13.3s4.76 13.29 10.59 13.27 10.56-6 10.55-13.31-4.77-13.29-10.59-13.26Z" opacity=".6" class="colorfff svgShape"/><path fill="#e2e2e2" d="M3061.72 1692.92h-.17a23 23 0 0 1-17.72-8.89l-125.29-156.12 9.95-8 125.29 156.13a10.19 10.19 0 0 0 7.85 4.12 10.41 10.41 0 0 0 7.85-4l129.08-156.82 9.85 8.11-129.08 156.82a23 23 0 0 1-17.61 8.65ZM2929 1870.72l-9.85-8.11 129.07-156.8a22.36 22.36 0 0 1 35.51.26l125.27 156.1-10 8-125.29-156.1a10.24 10.24 0 0 0-7.86-4.13 10.58 10.58 0 0 0-7.84 4Z" class="colore2e2e2 svgShape"/><path fill="#e2e2e2" d="M2937.68 1546.18a21.78 21.78 0 0 0 0-27.57c-6.57-7.6-17.21-7.57-23.75.06s-6.52 20 0 27.56 17.21 7.57 23.75-.05ZM3212.52 1545.69c6.54-7.62 6.51-20-.06-27.57s-17.2-7.57-23.75.06a21.74 21.74 0 0 0 .05 27.54c6.58 7.62 17.24 7.6 23.76-.03ZM2938.25 1869.84a21.76 21.76 0 0 0-.05-27.57c-6.56-7.59-17.2-7.58-23.75 0s-6.51 20 .05 27.57 17.22 7.62 23.75 0ZM3213.09 1869.34c6.54-7.62 6.53-20-.05-27.56s-17.2-7.57-23.75 0-6.52 20 .05 27.58 17.2 7.64 23.75-.02Z" class="colore2e2e2 svgShape"/><path fill="#e2e2e2" d="M3284.89 1498.74h498.64v24.09h-498.64z" transform="rotate(-.1 3671.294 1567.38)" class="colore2e2e2 svgShape"/><path fill="#e2e2e2" d="M3285.41 1796.11h498.64v24.08h-498.64z" transform="rotate(-.1 3671.024 1876.777)" class="colore2e2e2 svgShape"/><path fill="#e25b4d" d="m3361.42 2274.23-335.24.59-.7-389.06 335.25-.6.69 389.07z" class="colore25b4d svgShape"/><path fill="#d34e40" d="M2544.8 1885.75h773.37v390.21H2544.8z" transform="rotate(-.09 2882.282 2045.814)" class="colord34e40 svgShape"/><path fill="#e25b4d" d="m2819.94 2276.98-389.06.7-.7-389.07 389.06-.69.7 389.06z" class="colore25b4d svgShape"/><path fill="#f46f5c" d="m2597.8 1888.32-167.62.29.34 194.54c-.19-107.44 74.71-194.68 167.28-194.83ZM2430.52 2083.15l.36 194.53 167.62-.3c-92.58.17-167.78-86.8-167.98-194.23Z" class="colorf46f5c svgShape"/><path fill="#f46f5c" d="M2597.8 1888.32c92.58-.17 167.78 86.78 168 194.22l-.34-194.53ZM2598.5 2277.38l167.62-.3-.35-194.54c.23 107.46-74.7 194.67-167.27 194.84Z" class="colorf46f5c svgShape"/><path fill="#ffffff" d="M2598.45 2254.48c-82 .15-148.92-76.71-149.09-171.37s66.45-171.76 148.49-171.9 148.91 76.73 149.08 171.37-66.44 171.76-148.48 171.9Zm-.58-330.52c-75 .13-135.9 71.51-135.74 159.14s61.3 158.75 136.3 158.62 135.9-71.49 135.74-159.12-61.31-158.78-136.3-158.6Z" opacity=".6" class="colorfff svgShape"/><path fill="#ffffff" d="M2598.39 2214.93c-63.25.09-114.79-59-114.93-131.88s51.21-132.17 114.45-132.27 114.79 59 114.92 131.86-51.2 132.16-114.44 132.29Zm-.46-251.4c-56.19.1-101.83 53.7-101.71 119.51s45.94 119.22 102.14 119.12 101.83-53.69 101.72-119.48-45.94-119.26-102.15-119.15Z" opacity=".6" class="colorfff svgShape"/><path fill="#ffffff" d="M2598.32 2175.87c-44.69.08-81.11-41.59-81.2-92.87s36.18-93.09 80.87-93.17 81.1 41.58 81.19 92.87-36.18 93.09-80.86 93.17Zm-.31-173.29c-37.66.08-68.21 36.13-68.14 80.4s30.77 80.19 68.42 80.13 68.22-36.12 68.14-80.38-30.77-80.22-68.43-80.15Z" opacity=".6" class="colorfff svgShape"/><path fill="#ffffff" d="M2598.25 2139.53c-27.42 0-49.77-25.34-49.82-56.59s22.19-56.73 49.61-56.77 49.78 25.33 49.84 56.59-22.21 56.71-49.63 56.77Zm-.18-100.61c-20.39 0-36.93 19.78-36.89 44s16.66 43.91 37.05 43.87 36.93-19.78 36.89-44-16.67-43.91-37.05-43.87Z" opacity=".6" class="colorfff svgShape"/><path fill="#ffffff" d="M2598.2 2108.9c-12.87 0-23.35-11.65-23.38-26s10.42-26.05 23.29-26.08 23.34 11.65 23.37 26-10.42 26.06-23.28 26.08Zm-.07-39.33c-5.83 0-10.57 6-10.55 13.3s4.76 13.29 10.59 13.27 10.56-6 10.55-13.32-4.72-13.28-10.59-13.25Z" opacity=".6" class="colorfff svgShape"/><path fill="#e2e2e2" d="M2596.1 2081.66h-.17a23 23 0 0 1-17.72-8.89l-125.29-156.12 9.95-8 125.29 156.13a10.15 10.15 0 0 0 7.84 4.11 10.44 10.44 0 0 0 7.86-4l129.08-156.83 9.84 8.12L2613.71 2073a23 23 0 0 1-17.61 8.66ZM2463.37 2259.46l-9.85-8.11 129.07-156.81a22.37 22.37 0 0 1 35.51.27l125.29 156.1-9.95 8-125.29-156.1a10.21 10.21 0 0 0-7.86-4.13 10.58 10.58 0 0 0-7.84 4Z" class="colore2e2e2 svgShape"/><path fill="#e2e2e2" d="M2472.06 1934.92a21.78 21.78 0 0 0 0-27.57c-6.57-7.6-17.21-7.57-23.75.05s-6.52 20 0 27.56 17.2 7.57 23.75-.04ZM2746.9 1934.43a21.78 21.78 0 0 0-.06-27.57c-6.57-7.6-17.2-7.57-23.75.06a21.74 21.74 0 0 0 0 27.54c6.63 7.61 17.26 7.6 23.81-.03ZM2472.63 2258.57c6.55-7.61 6.52-20-.05-27.56s-17.2-7.58-23.75 0-6.51 20 .05 27.56 17.22 7.62 23.75 0ZM2747.47 2258.07a21.74 21.74 0 0 0 0-27.55c-6.58-7.59-17.2-7.57-23.75 0a21.78 21.78 0 0 0 0 27.57c6.57 7.63 17.2 7.62 23.75-.02Z" class="colore2e2e2 svgShape"/><path fill="#e2e2e2" d="M2819.26 1887.47h498.64v24.09h-498.64z" transform="rotate(-.1 3183.925 1973.754)" class="colore2e2e2 svgShape"/><path fill="#e2e2e2" d="M2819.79 2184.84h498.64v24.08h-498.64z" transform="rotate(-.1 3183.655 2283.151)" class="colore2e2e2 svgShape"/><path fill="#e25b4d" d="m3827.04 2274.23-335.24.59-.7-389.06 335.25-.6.69 389.07z" class="colore25b4d svgShape"/><path fill="#f46f5c" d="M3010.42 1885.75h773.37v390.21h-773.37z" transform="rotate(-.09 3340.648 2046.174)" class="colorf46f5c svgShape"/><path fill="#e25b4d" d="m3285.56 2276.98-389.06.7-.7-389.07 389.07-.69.69 389.06z" class="colore25b4d svgShape"/><path fill="#f46f5c" d="m3063.43 1888.32-167.63.29.34 194.54c-.14-107.44 74.71-194.68 167.29-194.83ZM2896.14 2083.15l.36 194.53 167.62-.3c-92.58.17-167.78-86.8-167.98-194.23ZM3063.43 1888.32c92.57-.17 167.77 86.78 168 194.22l-.34-194.53ZM3064.12 2277.38l167.62-.3-.35-194.54c.19 107.46-74.7 194.67-167.27 194.84Z" class="colorf46f5c svgShape"/><path fill="#ffffff" d="M3064.07 2254.48c-82 .15-148.91-76.71-149.09-171.37s66.45-171.76 148.49-171.9 148.91 76.73 149.08 171.37-66.44 171.76-148.48 171.9Zm-.58-330.52c-75 .13-135.9 71.51-135.74 159.14s61.3 158.75 136.3 158.62 135.9-71.49 135.74-159.12-61.31-158.78-136.3-158.6Z" opacity=".6" class="colorfff svgShape"/><path fill="#ffffff" d="M3064 2214.93c-63.25.09-114.79-59-114.93-131.88s51.21-132.17 114.45-132.27 114.79 59 114.92 131.86-51.19 132.16-114.44 132.29Zm-.46-251.4c-56.19.1-101.83 53.7-101.71 119.51s45.94 119.22 102.14 119.12 101.83-53.69 101.72-119.48-45.93-119.26-102.14-119.15Z" opacity=".6" class="colorfff svgShape"/><path fill="#ffffff" d="M3063.94 2175.87c-44.69.08-81.11-41.59-81.2-92.87s36.18-93.09 80.87-93.17 81.11 41.58 81.19 92.87-36.18 93.09-80.86 93.17Zm-.31-173.29c-37.65.08-68.21 36.13-68.14 80.4s30.77 80.19 68.42 80.13 68.22-36.12 68.15-80.38-30.78-80.22-68.43-80.15Z" opacity=".6" class="colorfff svgShape"/><path fill="#ffffff" d="M3063.87 2139.53c-27.42 0-49.77-25.34-49.82-56.59s22.19-56.73 49.61-56.77 49.78 25.33 49.84 56.59-22.21 56.71-49.63 56.77Zm-.18-100.61c-20.39 0-36.93 19.78-36.89 44s16.66 43.91 37 43.87 36.93-19.78 36.89-44-16.61-43.91-37-43.87Z" opacity=".6" class="colorfff svgShape"/><path fill="#ffffff" d="M3063.82 2108.9c-12.87 0-23.35-11.65-23.38-26s10.42-26.05 23.29-26.08 23.34 11.65 23.37 26-10.42 26.06-23.28 26.08Zm-.07-39.33c-5.83 0-10.57 6-10.55 13.3s4.76 13.29 10.59 13.27 10.56-6 10.55-13.32-4.77-13.28-10.59-13.25Z" opacity=".6" class="colorfff svgShape"/><path fill="#e2e2e2" d="M3061.72 2081.66h-.17a23 23 0 0 1-17.72-8.89l-125.29-156.12 9.95-8 125.29 156.13a10.15 10.15 0 0 0 7.85 4.11 10.43 10.43 0 0 0 7.85-4l129.08-156.83 9.85 8.12L3079.33 2073a23 23 0 0 1-17.61 8.66ZM2929 2259.46l-9.85-8.11 129.07-156.81a22.37 22.37 0 0 1 35.51.27l125.27 156.1-10 8-125.29-156.1a10.21 10.21 0 0 0-7.86-4.13 10.58 10.58 0 0 0-7.84 4Z" class="colore2e2e2 svgShape"/><path fill="#e2e2e2" d="M2937.68 1934.92a21.78 21.78 0 0 0 0-27.57c-6.57-7.6-17.21-7.57-23.75.05s-6.52 20 0 27.56 17.21 7.57 23.75-.04ZM3212.52 1934.43a21.78 21.78 0 0 0-.06-27.57c-6.57-7.6-17.2-7.57-23.75.06a21.74 21.74 0 0 0 .05 27.54c6.58 7.61 17.24 7.6 23.76-.03ZM2938.25 2258.57c6.55-7.61 6.53-20-.05-27.56s-17.2-7.58-23.75 0-6.51 20 .05 27.56 17.22 7.62 23.75 0ZM3213.09 2258.07a21.74 21.74 0 0 0-.05-27.55c-6.58-7.59-17.2-7.57-23.75 0a21.78 21.78 0 0 0 .05 27.57c6.57 7.63 17.2 7.62 23.75-.02Z" class="colore2e2e2 svgShape"/><path fill="#e2e2e2" d="M3284.89 1887.47h498.64v24.09h-498.64z" transform="rotate(-.1 3670.939 1974.18)" class="colore2e2e2 svgShape"/><path fill="#e2e2e2" d="M3285.41 2184.84h498.64v24.08h-498.64z" transform="rotate(-.1 3670.674 2277.847)" class="colore2e2e2 svgShape"/><path fill="#e25b4d" d="m3361.42 2663.89-335.24.59-.7-389.06 335.25-.6.69 389.07z" class="colore25b4d svgShape"/><path fill="#d34e40" d="M2544.8 2275.41h773.37v390.21H2544.8z" transform="rotate(-.09 2888.343 2434.157)" class="colord34e40 svgShape"/><path fill="#e25b4d" d="m2819.94 2666.64-389.06.7-.7-389.07 389.06-.69.7 389.06z" class="colore25b4d svgShape"/><path fill="#f46f5c" d="m2597.8 2278-167.62.3.34 194.53c-.19-107.45 74.71-194.7 167.28-194.83Z" class="colorf46f5c svgShape"/><path fill="#f46f5c" d="m2430.52 2472.81.36 194.53 167.62-.3c-92.58.17-167.78-86.79-167.98-194.23ZM2597.8 2278c92.58-.17 167.78 86.79 168 194.23l-.34-194.54Z" class="colorf46f5c svgShape"/><path fill="#f46f5c" d="m2598.5 2667 167.62-.3-.35-194.53c.23 107.47-74.7 194.7-167.27 194.83Z" class="colorf46f5c svgShape"/><path fill="#ffffff" d="M2598.45 2644.14c-82 .15-148.92-76.71-149.09-171.37s66.45-171.76 148.49-171.9 148.91 76.73 149.08 171.37-66.44 171.76-148.48 171.9Zm-.58-330.51c-75 .12-135.9 71.51-135.74 159.13s61.3 158.75 136.3 158.62 135.9-71.49 135.74-159.11-61.31-158.78-136.3-158.64Z" opacity=".6" class="colorfff svgShape"/><path fill="#ffffff" d="M2598.39 2604.59c-63.25.09-114.79-59.05-114.93-131.88s51.21-132.17 114.45-132.27 114.79 59 114.92 131.87-51.2 132.15-114.44 132.28Zm-.46-251.4c-56.19.1-101.83 53.7-101.71 119.51s45.94 119.22 102.14 119.13 101.83-53.7 101.72-119.49-45.94-119.26-102.15-119.15Z" opacity=".6" class="colorfff svgShape"/><path fill="#ffffff" d="M2598.32 2565.53c-44.69.08-81.11-41.59-81.2-92.87s36.18-93.09 80.87-93.17 81.1 41.58 81.19 92.87-36.18 93.1-80.86 93.17Zm-.31-173.29c-37.66.08-68.21 36.13-68.14 80.4s30.77 80.19 68.42 80.13 68.22-36.12 68.14-80.38-30.77-80.22-68.43-80.15Z" opacity=".6" class="colorfff svgShape"/><path fill="#ffffff" d="M2598.25 2529.19c-27.42 0-49.77-25.34-49.82-56.59s22.19-56.73 49.61-56.77 49.78 25.34 49.84 56.59-22.21 56.71-49.63 56.77Zm-.18-100.61c-20.39 0-36.93 19.78-36.89 44s16.66 43.91 37.05 43.87 36.93-19.78 36.89-44-16.67-43.91-37.05-43.87Z" opacity=".6" class="colorfff svgShape"/><path fill="#ffffff" d="M2598.2 2498.56c-12.87 0-23.35-11.64-23.38-26s10.42-26.06 23.29-26.09 23.34 11.65 23.37 26-10.42 26.07-23.28 26.09Zm-.07-39.33c-5.83 0-10.57 6-10.55 13.3s4.76 13.29 10.59 13.27 10.56-6 10.55-13.31-4.72-13.29-10.59-13.26Z" opacity=".6" class="colorfff svgShape"/><path fill="#e2e2e2" d="M2596.1 2471.32h-.17a23 23 0 0 1-17.72-8.89l-125.29-156.12 9.95-8 125.29 156.13a10.19 10.19 0 0 0 7.84 4.12 10.45 10.45 0 0 0 7.86-4l129.08-156.82 9.84 8.11-129.07 156.81a23 23 0 0 1-17.61 8.66ZM2463.37 2649.12l-9.85-8.11 129.07-156.8a22.36 22.36 0 0 1 35.51.26l125.29 156.1-9.95 8-125.29-156.1a10.21 10.21 0 0 0-7.86-4.13 10.58 10.58 0 0 0-7.84 4Z" class="colore2e2e2 svgShape"/><path fill="#e2e2e2" d="M2472.06 2324.58a21.78 21.78 0 0 0 0-27.57c-6.57-7.6-17.21-7.57-23.75.06s-6.52 20 0 27.55 17.2 7.58 23.75-.04ZM2746.9 2324.09c6.54-7.62 6.51-20-.06-27.57s-17.2-7.57-23.75.06a21.74 21.74 0 0 0 0 27.54c6.63 7.61 17.26 7.6 23.81-.03ZM2472.63 2648.23c6.55-7.61 6.52-20-.05-27.56s-17.2-7.58-23.75 0-6.51 20 .05 27.56 17.22 7.62 23.75 0ZM2747.47 2647.74c6.54-7.62 6.53-20 0-27.56s-17.2-7.57-23.75 0-6.52 20 0 27.58 17.2 7.61 23.75-.02Z" class="colore2e2e2 svgShape"/><path fill="#e2e2e2" d="M2819.26 2277.14h498.64v24.09h-498.64z" transform="rotate(-.1 3183.575 2374.825)" class="colore2e2e2 svgShape"/><path fill="#e2e2e2" d="M2819.79 2574.51h498.64v24.08h-498.64z" transform="rotate(-.1 3189.034 2684.227)" class="colore2e2e2 svgShape"/><path fill="#e25b4d" d="m3827.04 2663.89-335.24.59-.7-389.06 335.25-.6.69 389.07z" class="colore25b4d svgShape"/><path fill="#f46f5c" d="M3010.42 2275.41h773.37v390.21h-773.37z" transform="rotate(-.09 3340.343 2434.512)" class="colorf46f5c svgShape"/><path fill="#e25b4d" d="m3285.56 2666.64-389.06.7-.7-389.07 389.07-.69.69 389.06z" class="colore25b4d svgShape"/><path fill="#f46f5c" d="m3063.43 2278-167.63.3.34 194.53c-.14-107.45 74.71-194.7 167.29-194.83Z" class="colorf46f5c svgShape"/><path fill="#f46f5c" d="m2896.14 2472.81.36 194.53 167.62-.3c-92.58.17-167.78-86.79-167.98-194.23ZM3063.43 2278c92.57-.17 167.77 86.79 168 194.23l-.34-194.54Z" class="colorf46f5c svgShape"/><path fill="#f46f5c" d="m3064.12 2667 167.62-.3-.35-194.53c.19 107.47-74.7 194.7-167.27 194.83Z" class="colorf46f5c svgShape"/><path fill="#ffffff" d="M3064.07 2644.14c-82 .15-148.91-76.71-149.09-171.37s66.45-171.76 148.49-171.9 148.91 76.73 149.08 171.37-66.44 171.76-148.48 171.9Zm-.58-330.51c-75 .12-135.9 71.51-135.74 159.13s61.3 158.75 136.3 158.62 135.9-71.49 135.74-159.11-61.31-158.78-136.3-158.64Z" opacity=".6" class="colorfff svgShape"/><path fill="#ffffff" d="M3064 2604.59c-63.25.09-114.79-59.05-114.93-131.88s51.21-132.17 114.45-132.27 114.79 59 114.92 131.87-51.19 132.15-114.44 132.28Zm-.46-251.4c-56.19.1-101.83 53.7-101.71 119.51s45.94 119.22 102.14 119.13 101.83-53.7 101.72-119.49-45.93-119.26-102.14-119.15Z" opacity=".6" class="colorfff svgShape"/><path fill="#ffffff" d="M3063.94 2565.53c-44.69.08-81.11-41.59-81.2-92.87s36.18-93.09 80.87-93.17 81.11 41.58 81.19 92.87-36.18 93.1-80.86 93.17Zm-.31-173.29c-37.65.08-68.21 36.13-68.14 80.4s30.77 80.19 68.42 80.13 68.22-36.12 68.15-80.38-30.78-80.22-68.43-80.15Z" opacity=".6" class="colorfff svgShape"/><path fill="#ffffff" d="M3063.87 2529.19c-27.42 0-49.77-25.34-49.82-56.59s22.19-56.73 49.61-56.77 49.78 25.34 49.84 56.59-22.21 56.71-49.63 56.77Zm-.18-100.61c-20.39 0-36.93 19.78-36.89 44s16.66 43.91 37 43.87 36.93-19.78 36.89-44-16.61-43.91-37-43.87Z" opacity=".6" class="colorfff svgShape"/><path fill="#ffffff" d="M3063.82 2498.56c-12.87 0-23.35-11.64-23.38-26s10.42-26.06 23.29-26.09 23.34 11.65 23.37 26-10.42 26.07-23.28 26.09Zm-.07-39.33c-5.83 0-10.57 6-10.55 13.3s4.76 13.29 10.59 13.27 10.56-6 10.55-13.31-4.77-13.29-10.59-13.26Z" opacity=".6" class="colorfff svgShape"/><path fill="#e2e2e2" d="M3061.72 2471.32h-.17a23 23 0 0 1-17.72-8.89l-125.29-156.12 9.95-8 125.29 156.13a10.19 10.19 0 0 0 7.85 4.12 10.44 10.44 0 0 0 7.85-4l129.08-156.82 9.85 8.11-129.08 156.81a23 23 0 0 1-17.61 8.66ZM2929 2649.12l-9.85-8.11 129.07-156.8a22.36 22.36 0 0 1 35.51.26l125.27 156.1-10 8-125.29-156.1a10.21 10.21 0 0 0-7.86-4.13 10.58 10.58 0 0 0-7.84 4Z" class="colore2e2e2 svgShape"/><path fill="#e2e2e2" d="M2937.68 2324.58a21.78 21.78 0 0 0 0-27.57c-6.57-7.6-17.21-7.57-23.75.06s-6.52 20 0 27.55 17.21 7.58 23.75-.04ZM3212.52 2324.09c6.54-7.62 6.51-20-.06-27.57s-17.2-7.57-23.75.06a21.74 21.74 0 0 0 .05 27.54c6.58 7.61 17.24 7.6 23.76-.03ZM2938.25 2648.23c6.55-7.61 6.53-20-.05-27.56s-17.2-7.58-23.75 0-6.51 20 .05 27.56 17.22 7.62 23.75 0ZM3213.09 2647.74c6.54-7.62 6.53-20-.05-27.56s-17.2-7.57-23.75 0-6.52 20 .05 27.58 17.2 7.61 23.75-.02Z" class="colore2e2e2 svgShape"/><path fill="#e2e2e2" d="M3284.89 2277.14h498.64v24.09h-498.64z" transform="rotate(-.1 3670.589 2375.25)" class="colore2e2e2 svgShape"/><path fill="#e2e2e2" d="M3285.41 2574.51h498.64v24.08h-498.64z" transform="rotate(-.1 3670.319 2684.647)" class="colore2e2e2 svgShape"/><path fill="#fca15e" d="M1000.47 2551.32v86h1.22c13.22 22.95 136.22 40.95 286.09 40.95s272.88-18 286.07-40.95h1.25v-86Z" class="colorfca15e svgShape"/><path fill="#fed150" d="M1105.05 2554.05v113.89c29 3.76 62.87 6.64 99.89 8.39v-122.28ZM1223.73 2574.53v102.57c8.13.29 16.34.53 24.68.71v-103.28Z" class="colorfed150 svgShape"/><path fill="#ffe984" d="M1575.1 2551.32c0 21.41-128.64 38.78-287.32 38.78s-287.31-17.37-287.31-38.78 128.65-38.78 287.31-38.78 287.32 17.36 287.32 38.78Z" class="colorffe984 svgShape"/><path fill="#f3a43d" d="M1505.44 2553.68c0 16.21-97.44 29.37-217.66 29.37s-217.65-13.16-217.65-29.37 97.45-29.38 217.65-29.38 217.66 13.15 217.66 29.38Z" class="colorf3a43d svgShape"/><path fill="#fed150" d="M1483.69 2556.61c0 14.6-87.72 26.44-195.91 26.44s-195.9-11.84-195.9-26.44 87.72-26.44 195.9-26.44 195.91 11.83 195.91 26.44Z" class="colorfed150 svgShape"/><path fill="#ff8548" d="M972.27 2445.56v86h1.23c13.2 22.95 136.21 40.95 286.09 40.95s272.88-18 286.07-40.95h1.23v-86Z" class="colorff8548 svgShape"/><path fill="#fed150" d="M1076.86 2448.29v113.9c29.05 3.75 62.88 6.63 99.88 8.37v-122.27ZM1195.55 2468.76v102.58q12.14.42 24.66.71v-103.29Z" class="colorfed150 svgShape"/><path fill="#ffe984" d="M1546.89 2445.56c0 21.41-128.63 38.78-287.3 38.78s-287.32-17.34-287.32-38.78 128.64-38.78 287.32-38.78 287.3 17.36 287.3 38.78Z" class="colorffe984 svgShape"/><path fill="#f3a43d" d="M1477.25 2447.9c0 16.24-97.45 29.38-217.66 29.38s-217.67-13.14-217.67-29.38 97.44-29.37 217.67-29.37 217.66 13.16 217.66 29.37Z" class="colorf3a43d svgShape"/><path fill="#fed150" d="M1455.48 2450.85c0 14.61-87.7 26.43-195.89 26.43s-195.89-11.82-195.89-26.43 87.67-26.44 195.89-26.44 195.89 11.84 195.89 26.44Z" class="colorfed150 svgShape"/><path fill="#ff8548" d="M937 2339.8v86h1.23c13.2 23 136.19 40.94 286.09 40.94s272.87-18 286.08-40.94h1.24v-86Z" class="colorff8548 svgShape"/><path fill="#fed150" d="M1041.6 2342.52v113.9c29 3.76 62.88 6.64 99.89 8.39v-122.29ZM1160.28 2363v102.57c8.12.29 16.32.55 24.67.72V2363Z" class="colorfed150 svgShape"/><path fill="#ffe984" d="M1511.66 2339.8c0 21.42-128.67 38.78-287.32 38.78S937 2361.22 937 2339.8s128.63-38.8 287.34-38.8 287.32 17.38 287.32 38.8Z" class="colorffe984 svgShape"/><path fill="#f3a43d" d="M1442 2342.15c0 16.23-97.44 29.38-217.63 29.38s-217.66-13.15-217.66-29.38 97.44-29.38 217.66-29.38 217.63 13.16 217.63 29.38Z" class="colorf3a43d svgShape"/><path fill="#fed150" d="M1420.23 2345.08c0 14.61-87.7 26.45-195.89 26.45s-195.91-11.84-195.91-26.45 87.7-26.43 195.91-26.43 195.89 11.84 195.89 26.43Z" class="colorfed150 svgShape"/><path fill="#fca15e" d="M1018.08 2236.08v86h1.25c13.2 23 136.22 40.94 286.09 40.94s272.86-18 286.07-40.94h1.24v-86Z" class="colorfca15e svgShape"/><path fill="#fed150" d="M1122.67 2238.82v113.89c29.07 3.76 62.91 6.64 99.9 8.39v-122.28ZM1241.36 2259.29v102.58q12.18.43 24.69.7v-103.28Z" class="colorfed150 svgShape"/><path fill="#ffe984" d="M1592.73 2236.08c0 21.43-128.63 38.78-287.31 38.78s-287.34-17.35-287.34-38.78 128.64-38.78 287.34-38.78 287.31 17.37 287.31 38.78Z" class="colorffe984 svgShape"/><path fill="#f3a43d" d="M1523.05 2238.44c0 16.22-97.44 29.38-217.63 29.38s-217.66-13.16-217.66-29.38 97.46-29.38 217.66-29.38 217.63 13.14 217.63 29.38Z" class="colorf3a43d svgShape"/><path fill="#fed150" d="M1501.3 2241.37c0 14.61-87.69 26.45-195.88 26.45s-195.91-11.84-195.91-26.45 87.7-26.44 195.91-26.44 195.88 11.84 195.88 26.44Z" class="colorfed150 svgShape"/><path fill="#ff8548" d="M961.09 2134.58v86h1.24c13.22 22.95 136.22 40.95 286.08 40.95s272.88-18 286.1-40.95h1.23v-86Z" class="colorff8548 svgShape"/><path fill="#fed150" d="M1065.68 2137.31v113.89c29.06 3.76 62.88 6.64 99.88 8.38v-122.27ZM1184.37 2157.78v102.58q12.17.43 24.67.71v-103.29Z" class="colorfed150 svgShape"/><path fill="#ffe984" d="M1535.74 2134.58c0 21.42-128.64 38.77-287.33 38.77s-287.32-17.35-287.32-38.77 128.64-38.79 287.32-38.79 287.33 17.37 287.33 38.79Z" class="colorffe984 svgShape"/><path fill="#f3a43d" d="M1466.08 2136.93c0 16.23-97.46 29.37-217.67 29.37s-217.64-13.14-217.64-29.37 97.44-29.37 217.64-29.37 217.67 13.15 217.67 29.37Z" class="colorf3a43d svgShape"/><path fill="#fed150" d="M1444.32 2139.87c0 14.6-87.71 26.43-195.91 26.43s-195.89-11.83-195.89-26.43 87.7-26.43 195.89-26.43 195.91 11.82 195.91 26.43Z" class="colorfed150 svgShape"/><path fill="#fca15e" d="M1018.08 2031.4v86h1.25c13.2 23 136.22 40.95 286.09 40.95s272.88-18 286.07-40.95h1.24v-86Z" class="colorfca15e svgShape"/><path fill="#fed150" d="M1122.7 2034.13V2148c29 3.76 62.88 6.64 99.87 8.39v-122.26ZM1241.39 2054.6v102.57q12.13.43 24.66.72V2054.6Z" class="colorfed150 svgShape"/><path fill="#ffe984" d="M1592.73 2031.4c0 21.42-128.63 38.78-287.31 38.78s-287.34-17.36-287.34-38.78 128.66-38.78 287.34-38.78 287.31 17.38 287.31 38.78Z" class="colorffe984 svgShape"/><path fill="#f3a43d" d="M1523.08 2033.75c0 16.23-97.47 29.38-217.66 29.38s-217.66-13.15-217.66-29.38 97.46-29.38 217.66-29.38 217.66 13.16 217.66 29.38Z" class="colorf3a43d svgShape"/><path fill="#fed150" d="M1501.3 2036.69c0 14.6-87.69 26.44-195.88 26.44s-195.9-11.84-195.9-26.44 87.69-26.44 195.9-26.44 195.88 11.83 195.88 26.44Z" class="colorfed150 svgShape"/><path fill="#fca15e" d="M1960.24 2571.17v78.2h1.11c12 20.88 123.91 37.25 260.23 37.25s248.21-16.37 260.21-37.25h1.13v-78.2Z" class="colorfca15e svgShape"/><path fill="#fed150" d="M2055.37 2573.66v103.59c26.42 3.42 57.19 6 90.85 7.63v-111.22ZM2163.32 2592.28v93.3c7.39.27 14.86.49 22.45.65v-93.95Z" class="colorfed150 svgShape"/><path fill="#ffe984" d="M2482.92 2571.17c0 19.48-117 35.28-261.34 35.28s-261.34-15.8-261.34-35.28 117-35.27 261.34-35.27 261.34 15.79 261.34 35.27Z" class="colorffe984 svgShape"/><path fill="#f3a43d" d="M2419.56 2573.32c0 14.75-88.64 26.72-198 26.72s-198-12-198-26.72 88.64-26.72 198-26.72 198 11.96 198 26.72Z" class="colorf3a43d svgShape"/><path fill="#fed150" d="M2399.77 2576c0 13.28-79.78 24.05-178.19 24.05s-178.19-10.77-178.19-24.05 79.79-24 178.19-24 178.19 10.7 178.19 24Z" class="colorfed150 svgShape"/><path fill="#ff8548" d="M1934.59 2475v78.2h1.12c12 20.87 123.89 37.24 260.23 37.24s248.21-16.37 260.21-37.24h1.11V2475Z" class="colorff8548 svgShape"/><path fill="#fed150" d="M2029.73 2477.46v103.6c26.42 3.41 57.19 6 90.84 7.62v-111.22ZM2137.68 2496.08v93.3c7.36.26 14.85.49 22.44.65v-94Z" class="colorfed150 svgShape"/><path fill="#ffe984" d="M2457.26 2475c0 19.47-117 35.27-261.32 35.27s-261.35-15.8-261.35-35.27 117-35.28 261.35-35.28 261.32 15.77 261.32 35.28Z" class="colorffe984 svgShape"/><path fill="#f3a43d" d="M2393.92 2477.1c0 14.77-88.65 26.73-198 26.73s-198-12-198-26.73 88.64-26.71 198-26.71 198 11.97 198 26.71Z" class="colorf3a43d svgShape"/><path fill="#fed150" d="M2374.11 2479.79c0 13.29-79.76 24-178.17 24s-178.19-10.75-178.19-24 79.75-24.05 178.19-24.05 178.17 10.76 178.17 24.05Z" class="colorfed150 svgShape"/><path fill="#ff8548" d="M1902.52 2378.78V2457h1.13c12 20.88 123.88 37.23 260.22 37.23s248.2-16.35 260.22-37.23h1.13v-78.2Z" class="colorff8548 svgShape"/><path fill="#fed150" d="M1997.65 2381.25v103.6c26.42 3.42 57.2 6 90.86 7.63v-111.23ZM2105.6 2399.88v93.3c7.38.26 14.85.5 22.44.65v-93.95Z" class="colorfed150 svgShape"/><path fill="#ffe984" d="M2425.22 2378.78c0 19.48-117 35.27-261.35 35.27s-261.35-15.79-261.35-35.27 117-35.28 261.35-35.28 261.35 15.79 261.35 35.28Z" class="colorffe984 svgShape"/><path fill="#f3a43d" d="M2361.83 2380.91c0 14.76-88.63 26.73-198 26.73s-198-12-198-26.73 88.63-26.72 198-26.72 198 11.97 198 26.72Z" class="colorf3a43d svgShape"/><path fill="#fed150" d="M2342.06 2383.58c0 13.29-79.78 24.06-178.19 24.06s-178.2-10.77-178.2-24.06 79.78-24 178.2-24 178.19 10.72 178.19 24Z" class="colorfed150 svgShape"/><path fill="#fca15e" d="M1976.26 2284.44v78.2h1.14c12 20.87 123.9 37.24 260.22 37.24s248.2-16.37 260.21-37.24h1.17v-78.2Z" class="colorfca15e svgShape"/><path fill="#fed150" d="M2071.4 2286.93v103.59c26.43 3.42 57.21 6 90.86 7.63v-111.22ZM2179.35 2305.54v93.31q11.07.39 22.47.64v-93.95Z" class="colorfed150 svgShape"/><path fill="#ffe984" d="M2499 2284.44c0 19.48-117 35.27-261.34 35.27s-261.36-15.79-261.36-35.27 117-35.28 261.36-35.28S2499 2265 2499 2284.44Z" class="colorffe984 svgShape"/><path fill="#f3a43d" d="M2435.58 2286.58c0 14.76-88.63 26.72-198 26.72s-198-12-198-26.72 88.64-26.72 198-26.72 198 11.95 198 26.72Z" class="colorf3a43d svgShape"/><path fill="#fed150" d="M2415.8 2289.25c0 13.29-79.77 24.05-178.18 24.05s-178.2-10.76-178.2-24.05 79.78-24.05 178.2-24.05 178.18 10.8 178.18 24.05Z" class="colorfed150 svgShape"/><path fill="#ff8548" d="M1924.42 2192.11v78.2h1.13c12 20.87 123.9 37.24 260.22 37.24s248.23-16.37 260.23-37.24h1.12v-78.2Z" class="colorff8548 svgShape"/><path fill="#fed150" d="M2019.56 2194.59v103.59c26.43 3.43 57.19 6.05 90.85 7.63v-111.22ZM2127.51 2213.21v93.31c7.39.26 14.85.48 22.44.65v-94Z" class="colorfed150 svgShape"/><path fill="#ffe984" d="M2447.12 2192.11c0 19.48-117 35.27-261.35 35.27s-261.35-15.79-261.35-35.27 117-35.28 261.35-35.28 261.35 15.79 261.35 35.28Z" class="colorffe984 svgShape"/><path fill="#f3a43d" d="M2383.75 2194.24c0 14.77-88.64 26.72-198 26.72s-198-11.95-198-26.72 88.63-26.71 198-26.71 198 11.96 198 26.71Z" class="colorf3a43d svgShape"/><path fill="#fed150" d="M2364 2196.92c0 13.28-79.79 24-178.2 24s-178.19-10.76-178.19-24 79.78-24 178.19-24 178.2 10.72 178.2 24Z" class="colorfed150 svgShape"/><path fill="#fca15e" d="M1976.26 2098.26v78.19h1.14c12 20.89 123.9 37.24 260.22 37.24s248.21-16.35 260.21-37.24h1.17v-78.19Z" class="colorfca15e svgShape"/><path fill="#fed150" d="M2071.42 2100.74v103.6c26.42 3.41 57.19 6 90.84 7.62v-111.22ZM2179.38 2119.36v93.3c7.35.26 14.85.49 22.44.65v-93.95Z" class="colorfed150 svgShape"/><path fill="#ffe984" d="M2499 2098.26c0 19.48-117 35.27-261.34 35.27s-261.36-15.79-261.36-35.27 117-35.28 261.36-35.28 261.34 15.8 261.34 35.28Z" class="colorffe984 svgShape"/><path fill="#f3a43d" d="M2435.6 2100.4c0 14.76-88.65 26.72-198 26.72s-198-12-198-26.72 88.64-26.73 198-26.73 198 11.97 198 26.73Z" class="colorf3a43d svgShape"/><path fill="#fed150" d="M2415.8 2103.07c0 13.28-79.77 24-178.18 24s-178.19-10.77-178.19-24 79.77-24.07 178.19-24.07 178.18 10.78 178.18 24.07Z" class="colorfed150 svgShape"/><path fill="#d6d6d6" d="m1856.74 2712.11-281.92-230.2v-345.25h-42.85v345.25l-281.92 230.2h57.37l224.55-161.9v161.9h42.85v-161.9l224.55 161.9h57.37z" class="colord6d6d6 svgShape"/><rect width="425.31" height="133.42" x="1344.81" y="2028.94" fill="#a140db" rx="8.32" transform="rotate(-180 1557.465 2095.655)" class="colora140db svgShape"/><path fill="#a140db" d="M1089.08 1530h1015.6l-129.3 346.47c-21.17 108.67-215.91 234.74-372.15 234.74H1210c-84.28 0-102.17-43-114.68-114L1002.11 1530Z" class="colora140db svgShape"/><path fill="#c565f5" d="M1080.05 1284.17h121.6c-71 0-118 48.63-100.09 137.5l63 287c0 61.58 48.83 112 108.52 112h-121.6c-59.69 0-104.18-40-113.71-112l-60.41-287c-17.91-88.87 31.73-137.5 102.69-137.5Z" class="colorc565f5 svgShape"/><path fill="#a140db" d="m1240.5 1530-116.07-.08-23.11-108.27c-16.73-88.87 29.63-137.5 95.88-137.5h407.35c66.84 0 117.86 44.86 128.06 111.95l80 367.24c6.23 28.57-6.79 57.27-42 57.27H1263.9c-6.47-91.01-23.4-290.61-23.4-290.61Z" class="colora140db svgShape"/><path fill="#c565f5" d="M1263.21 1530c15.93 0 30 10.63 34.87 26.29l59.61 192.86c24.63 78.49 86.39 111.25 166.24 111.95h307.89c79.85-.7 141.61-33.46 166.24-111.95l59.6-192.86c4.84-15.66 18.94-26.29 34.88-26.29h15.19c23.22 0 40.58 22 35.83 45.48l-73.15 361.85c-21.17 108.66-110.06 173.88-266.3 173.88h-252.47c-156.24 0-245.13-65.22-266.3-173.88l-73.16-361.85c-4.74-23.48 12.61-45.48 35.82-45.48Z" class="colorc565f5 svgShape"/><path fill="#ffa7a1" d="m2395 1694.5-63.11-83.32-76.18 10.2-328.22-104.69-30.12-129.47-123.5-9.83s-15.68 255.94 32 264.22c93.8 16.29 326.34 39.34 424.14 48.7l13.05 27.18Z" class="colorffa7a1 svgShape"/><path fill="#d14318" d="M1584 839.56c-1.83-11.36 5.29-22.79 15.07-28.86s21.69-7.64 33.19-7.71a146.25 146.25 0 0 1 73.74 19.63c6.94 4 13.7 8.78 18.14 15.45 6 8.93 7 20.11 8.38 30.75a388.33 388.33 0 0 0 11.19 55.4c3.2 11.5 7.87 24 18.49 29.43a55.15 55.15 0 0 1-37.14-10.1 48.83 48.83 0 0 0 14.39 25.05 48.22 48.22 0 0 1-24.27-8.47 5.06 5.06 0 0 1 1 5.59A59 59 0 0 1 1664 949.3c-6.34 7-8.27 17.05-14.11 24.47-6.47 8.21-17.13 12.26-27.56 12.93s-20.81-1.62-31-4.09a17.55 17.55 0 0 0-4.48-.68c-2.34.06-4.53 1.06-6.69 2a82.83 82.83 0 0 1-47.65 4.64 28.17 28.17 0 0 0 5.58-18.39 48.14 48.14 0 0 1-47.51-3.85c3.85-5.58 10.83-8.39 14.64-14s3.73-13 3.49-19.81l-1-30c-.43-12.29-.76-25.13 4.45-36.27 6-12.69 18.54-21.41 32-25.27s27.82-3.38 41.73-1.6Z" class="colord14318 svgShape"/><g clip-path="url(#a)" fill="#000000" class="color000 svgShape"><path fill="#bc3111" d="M1579.8 850.45a50.35 50.35 0 0 0-24.18 10.4 51.56 51.56 0 0 1 52.07 9 31.52 31.52 0 0 1 7.74-46.45 38.26 38.26 0 0 0-24.82 10.61c1.37-9.5 7.84-17.77 16-22.89s17.76-7.36 27.33-8.17c-43.38-14.73-94.3-4.52-128.64 25.8l16.7 21.66c16.92-11.53 40.91-11.51 57.8.04ZM1705.75 897.26c-7.19 13.16-7.25 28.22-9.76 43-8.14.53-15.76-4.36-21.25-10.4s-9.46-13.28-14.6-19.61c-1.43-1.76-4.51 4.8-6.62 4-4.76-1.82-8.35-6.57-11.78-2.81-8.87 9.76-14.14 22.16-20.8 33.54-4.07 7-11.3 14.54-18.87 11.71-5.65-2.11-7.75-8.86-9.12-14.74-4.69 8.21-9.56 16.61-16.93 22.53s-17.93 8.84-26.44 4.74a47.74 47.74 0 0 0-1.92-43.83c-8.78 23.05-32.87 39.36-57.53 39l-16.69 30.25c6.23 8.78 12.8 17.84 22.26 23 6.46 3.5 13.84 4.89 21.12 5.93 25.81 3.67 52 3.37 78.07 2.13 36.22-1.71 72.7-5.29 107.15-16.6s67-30.94 88.67-60c-33.95 3.29-73.71-19.63-84.96-51.84Z" class="colorbc3111 svgShape"/></g><path fill="#ffe8cf" d="m2083.2 2725.37-182.92-68.87-105.18-39.61 70.08-186.11 32.06 13.23 47.89 19.78c-17.65 31.05-13.16 73.13 10.62 99.76 16.12 18.06 38.91 28.42 58.43 42.7 38.1 27.9 63.82 72.18 69.02 119.12Z" class="colorffe8cf svgShape"/><path fill="#ffd2a6" d="m1900.28 2656.5-105.18-39.61 70.08-186.11 32.06 13.23a218.54 218.54 0 0 0 3 212.49Z" class="colorffd2a6 svgShape"/><path fill="#ff3d59" d="m1787.32 2646.84 297 111.86a20.49 20.49 0 0 0 26.31-11.92 20.49 20.49 0 0 0-11.92-26.32l-297.05-111.85a20.48 20.48 0 0 0-26.31 11.92 20.48 20.48 0 0 0 11.97 26.31ZM1970.46 2542.5a3 3 0 0 1-.93-.15l-62.87-20.35a3 3 0 0 1 1.85-5.71l62.87 20.32a3 3 0 0 1-.92 5.85ZM1969.31 2572.29a2.94 2.94 0 0 1-.92-.14l-62.87-20.32a3 3 0 0 1 1.84-5.71l62.87 20.32a3 3 0 0 1-.92 5.85Z" class="colorff3d59 svgShape"/><path fill="#ffe8cf" d="M2432.61 2331.13c3.72 35.51 31.87 67.12 66.71 74.92 23.61 5.29 48.18.44 72.38.68a173.45 173.45 0 0 1 125.46 56.65L2399.79 2543l-51.42-192.12Z" class="colorffe8cf svgShape"/><path fill="#ffd2a6" d="M2510.66 2512.37 2402.51 2543l-54.14-191.37 33.65-8.38a218.55 218.55 0 0 0 128.64 169.15Z" class="colorffd2a6 svgShape"/><path fill="#ff3d59" d="m2410.9 2571.85 306.62-82.06a20.5 20.5 0 0 0 14.46-25 20.49 20.49 0 0 0-25-14.45l-306.62 82.06a20.48 20.48 0 0 0-14.45 25 20.49 20.49 0 0 0 24.99 14.45ZM2434.33 2401a3 3 0 0 1-.91-5.86l62.94-20.1a3 3 0 1 1 1.82 5.72l-62.94 20.1a2.88 2.88 0 0 1-.91.14ZM2450.75 2425.92a3 3 0 0 1-.91-5.86l62.94-20.1a3 3 0 1 1 1.82 5.72l-62.94 20.09a2.89 2.89 0 0 1-.91.15Z" class="colorff3d59 svgShape"/><path fill="#24c6e0" d="m1681.15 1112.05 30 6.26c40.79 8.51 106.38 32.21 130 69.43l91.85 212.91-138.15 46.18-.14 238.9-365.19 4 6.64-232.3-167-39.12L1385.67 1201c26.48-53.76 100.67-79.74 156.57-82.39Z" class="color24c6e0 svgShape"/><g clip-path="url(#b)" fill="#000000" class="color000 svgShape"><path fill="#16a8b7" d="m1723.45 1496.67 24.8-346.75 35.91 250.95 148.82-.22-209.53 96.02zM1536.73 1112.05l10.34 172.12 189.64 27.04-240.62 50.33 16.66-122.61 23.98-126.88z" class="color16a8b7 svgShape"/></g><path fill="#ffa7a1" d="M1523 1119c37.68-17 65.12-121.69 60.71-162.81l69.29 67.51c-3.07 28.16 12.28 49.48 26 74.24 7.17 12.9 15.87 26.4 29.72 31.51-22.5 25.84-58.93 36.87-93.15 35.16S1542.79 1147 1523 1119Z" class="colorffa7a1 svgShape"/><path fill="#e85858" d="M1565.19 1001.13c1.39 15.3 8.94 29.51 18.72 41.35a119.5 119.5 0 0 0 85.11 42.74c8.38.42 17-.1 24.71-3.41s14.4-9.8 16.26-18c1.18-5.15.4-10.54-.68-15.72a139.29 139.29 0 0 0-165.39-107.78Z" clip-path="url(#c)" class="colore85858 svgShape"/><path fill="#ffa7a1" d="M1532.07 940.07c11.55-5.89 30.23 2.28 32.8 13.09l1.61 17 10 1.24-1.22-28.56s17.88-21.58 20.42-47.7q.85-2.29 1.5-4.65a33.29 33.29 0 0 0 32.62 14.28 49.4 49.4 0 0 1-11.74-14.3c9.66 9 22.22 14.5 35.08 17.57s26.15 3.89 39.35 4.7c-8.3-6.11-17-12.91-22.81-21.18l21.32 7.28c5.61 1.93 8.82-2.37 14.71-1.59.24 9 4.74 39.35-1.08 66.44-5.06 23.54 7.39 61-15.63 87.18-17.54 20-47.29 23.69-70.15 10.14-19.89-11.77-44.9-31.76-53.69-61 0 0-15.64 9-25.44-8.2s-19.19-45.81-7.65-51.74Z" class="colorffa7a1 svgShape"/><g clip-path="url(#d)" fill="#000000" class="color000 svgShape"><path fill="#f4807d" d="M1595.59 885.36c-.66 7.64 4.13 14.93 10.39 19.35s13.82 6.53 21.23 8.48a33.35 33.35 0 0 1-6.69-11.56 46 46 0 0 0 19.15 8.77 86.55 86.55 0 0 0 16.49 1.2q11.7.07 23.4-.19a49.28 49.28 0 0 1-9-4.25c-10.1-5.63-20.36-11.39-28.39-19.72-3.16-3.27-6-6.92-9.46-9.83a30.46 30.46 0 0 0-23.39-6.62c-7.83 1.1-14.87 5.21-21.66 9.25Z" class="colorf4807d svgShape"/></g><path fill="#e85858" d="M1555.42 975.52c-2-15.9-6.8-21.56-9.51-23.52a6.84 6.84 0 0 0-5.4-1.4c-.52.1-1.42.34-1.65.75-.63 1.17 1 5.25 2.64 9.57.62 1.58 1.3 3.32 2 5.24l-3.75 1.39c-.7-1.9-1.37-3.62-2-5.18-2.47-6.32-4-10.13-2.43-12.94a5.9 5.9 0 0 1 4.37-2.75 10.65 10.65 0 0 1 8.53 2.08c4 2.86 9.11 9.74 11.14 26.28Z" class="colore85858 svgShape"/><path fill="#77101f" d="M1646.39 933.77a37.84 37.84 0 0 0-5.92-1.8c-2-.47-4.13-.84-6.22-1.14a109.34 109.34 0 0 0-12.66-1.06c-4.24-.17-8.49-.08-12.74.07l-6.36.37-6.35.56-.34-4 6.48-.34 6.49-.15c4.33 0 8.66.07 13 .4a112.71 112.71 0 0 1 12.92 1.55q3.21.59 6.38 1.42c1 .28 2.1.59 3.15.94a28.34 28.34 0 0 1 3.14 1.24ZM1670 931.34c2.9-.2 5.59-.17 8.36-.1s5.5.23 8.23.43 5.47.45 8.2.73 5.44.61 8.16 1l-.57 4c-2.67-.41-5.35-.8-8-1.15s-5.37-.65-8.06-.91-5.38-.47-8.06-.61-5.42-.22-8-.11Z" class="color77101f svgShape"/><path fill="#e85858" d="m1670.08 988.91-22.36-1.68.3-3.99 17.47 1.32-3.8-29.49 3.97-.51 4.42 34.35z" class="colore85858 svgShape"/><ellipse cx="1683.42" cy="956.91" fill="#77101f" rx="9.43" ry="5.39" transform="rotate(-85.69 1683.406 956.92)" class="color77101f svgShape"/><ellipse cx="1623.13" cy="953.72" fill="#77101f" rx="9.43" ry="5.39" transform="rotate(-85.69 1623.125 953.72)" class="color77101f svgShape"/><path fill="#ffffff" d="m1616.08 1000.07 50.87 6.8s-5.65 29.54-31.25 23.76-19.62-30.56-19.62-30.56Z" class="colorfff svgShape"/><path fill="#006bd9" d="m1875.39 1832.35-58.54 648.25h154.25l154.25-648.25s-172.93-116.35-249.96 0Z" class="color006bd9 svgShape"/><path fill="#004477" d="m1748.25 1903.17 197.42-28.57 221.3 241.06 71.35-283.91-225.45-170.6-185.85 17.81-78.77 224.21z" clip-path="url(#e)" class="color047 svgShape"/><path fill="#006bd9" d="M2082 1576.83c-34.22-14-155.6 18-286.14 60.29l2-190.74-1.07-139.33-38.37-.93-4.29-170.7c-.23-8.91-6.78-16.72-15.64-17.67a17.6 17.6 0 0 0-19.47 17.89l4.27 169.64-187.91-4.52 2.67-177.5c.13-8.91-6.1-17-14.92-18.28a17.59 17.59 0 0 0-20.17 17.09l-2.68 177.85-16.33-.4-38.36 144.29-34.43 303.38a149.2 149.2 0 0 0 6.83 64.47c16.06 47.76 28.47 116.46 111.34 126 233 26.81 433.36-135.12 433.36-135.12l395 605.47 126.57-78.78s-283.57-703.88-402.26-752.4Z" class="color006bd9 svgShape"/><g clip-path="url(#f)" fill="#000000" class="color000 svgShape"><path fill="#0057a5" d="m1410.19 1657 263-38.66-237.85 85.81 55.21 11-67.11 23.81s-17.56 115.47 29.91 167.84-90.62 0-90.62 0l-12.38-181.21Z" class="color0057a5 svgShape"/><path fill="#004477" d="m1802.02 1603.19-53.77 15.13 32.64 9.73-51.49 23.95 72.62-16.87v-31.94z" class="color047 svgShape"/><path fill="#0057a5" d="m1962.68 1802.53-23.1-72v72l-25.64-23.42-10.49 31.21s-137 96.56-189.43 119.7 0 81.48 0 81.48l264.83-81.5Z" class="color0057a5 svgShape"/></g><path fill="#0057a5" d="m1520.41 1337.86-1.38 82.75a66.4 66.4 0 0 0 65.54 67.51l99 1.27a66.4 66.4 0 0 0 67.24-64.87l1.75-76.13Z" class="color0057a5 svgShape"/><path fill="#1383e8" d="m1530.42 1342.52-1.3 77.66a62.32 62.32 0 0 0 61.51 63.36l92.87 1.19a62.31 62.31 0 0 0 63.1-60.88l1.65-71.44Z" class="color1383e8 svgShape"/><ellipse cx="1560.8" cy="1360.21" fill="#ffffff" opacity=".7" rx="5.61" ry="14.44" transform="rotate(-87.96 1560.88 1360.209)" class="colorfff svgShape"/><ellipse cx="1717.51" cy="1366.65" fill="#ffffff" opacity=".7" rx="5.98" ry="15.05" transform="rotate(-87.99 1717.423 1366.657)" class="colorfff svgShape"/><path fill="#ffa7a1" d="M1314.9 1428s-46.06 289.22 0 320.14 495.87-30.64 495.87-30.64l108.56-8.76s-28.35-89.24-101-97.55-90.36 36.34-90.36 36.34L1425.29 1615l16.08-160.75Z" class="colorffa7a1 svgShape"/><path fill="#d1661e" d="m1319.01 1764.64-7.29 56.89-119.78 935.78h-45.07l88.23-935.78 6.03-63.98.02-.33 3.52.33 74.34 7.09z" class="colord1661e svgShape"/><path fill="#af4e0b" d="m1319.01 1764.64-7.29 56.89h-76.62l6.03-63.98h3.54l74.34 7.09z" class="coloraf4e0b svgShape"/><path fill="#d1661e" d="M2726.27 2757.31h-45.07l-119.23-931.49-7.84-61.18 77.89-7.42 6.46 68.6 87.79 931.49z" class="colord1661e svgShape"/><path fill="#af4e0b" d="M2638.48 1825.82h-76.51l-7.84-61.18 77.89-7.42 6.46 68.6z" class="coloraf4e0b svgShape"/><path fill="#d1661e" d="M2884.77 1755.15a30.8 30.8 0 0 1-30.74 30.74H944a30.74 30.74 0 0 1 0-61.48h1910a30.84 30.84 0 0 1 30.77 30.74Z" class="colord1661e svgShape"/><path fill="#ed8a29" d="M1396.91 1724.41v61.48H944a30.74 30.74 0 0 1 0-61.48Z" class="colored8a29 svgShape"/><rect width="697" height="45.58" x="1717.99" y="1678.64" fill="#9b250e" rx="5.93" class="color9b250e svgShape"/><path fill="#5e150b" d="m2742.83 1155.7-104.69 378.78a41.46 41.46 0 0 1-40 30.41h-570.5a41.45 41.45 0 0 1-40-52.45l104.12-378.78a41.45 41.45 0 0 1 40-30.47h571.07a41.46 41.46 0 0 1 40 52.51Z" class="color5e150b svgShape"/><path fill="#9b250e" d="m2766.9 1173.29-104.69 378.78a41.47 41.47 0 0 1-40 30.42h-570.5a41.46 41.46 0 0 1-40-52.45l104.12-378.78a41.46 41.46 0 0 1 40-30.48h571.07a41.46 41.46 0 0 1 40 52.51Z" class="color9b250e svgShape"/><path fill="#ffffff" d="M2398.11 1290.23a71.8 71.8 0 0 0-11 16.68 60.24 60.24 0 0 0-5.35 19.16 46.39 46.39 0 0 0 2 19.6 35.33 35.33 0 0 0 28.17 24.11 46.41 46.41 0 0 0 19.23-1A60.63 60.63 0 0 0 2449 1361a70.34 70.34 0 0 0 14.73-12.65c8.6-9.7 14.71-21.81 16.37-34.69a46.78 46.78 0 0 0-1.31-19.2 35.32 35.32 0 0 0-27.32-25.06 46.43 46.43 0 0 0-19.7.33 60.29 60.29 0 0 0-18.38 7.62 72 72 0 0 0-15.28 12.88Zm0 0a71.7 71.7 0 0 1 15.16-13 62.28 62.28 0 0 1 18.33-8 48.45 48.45 0 0 1 20.06-1 37.29 37.29 0 0 1 29.71 25.47 48.41 48.41 0 0 1 2.12 20.42 62.45 62.45 0 0 1-5.53 19.79 71.62 71.62 0 0 1-27 30.41 62.43 62.43 0 0 1-19 7.87 48.55 48.55 0 0 1-20.54.35 37.29 37.29 0 0 1-28.85-26.42 48.31 48.31 0 0 1-1.39-20 62.32 62.32 0 0 1 5.76-19.17 71.94 71.94 0 0 1 11.17-16.72Z" opacity=".5" class="colorfff svgShape"/><path fill="#5e150b" d="m2504.85 1658.62-59.52-169.54a13.45 13.45 0 0 0-12.69-9h-146.53a13.46 13.46 0 0 0-12.72 17.84l52.71 153a13.34 13.34 0 0 1 .74 4.38v22.74a13.46 13.46 0 0 1-13.46 13.46h-167.24a13.46 13.46 0 0 0-13.46 13.45v5.77a13.46 13.46 0 0 0 13.46 13.45h346a13.46 13.46 0 0 0 13.46-13.45v-47.69a13.47 13.47 0 0 0-.75-4.41Zm-80-38c-11.08 3.69-24.48-6.59-29.93-23s-.88-32.63 10.2-36.32 24.49 6.59 29.94 23 .88 32.64-10.21 36.33Z" class="color5e150b svgShape"/><path fill="#bf4434" d="M2521.51 1658.62 2462 1489.08a13.45 13.45 0 0 0-12.69-9h-146.54a13.46 13.46 0 0 0-12.72 17.84l52.71 153a13.34 13.34 0 0 1 .74 4.38v22.74a13.46 13.46 0 0 1-13.46 13.46H2162.8a13.46 13.46 0 0 0-13.46 13.45v5.77a13.46 13.46 0 0 0 13.46 13.45h346a13.46 13.46 0 0 0 13.46-13.45v-47.69a13.47 13.47 0 0 0-.75-4.41Zm-80-38c-11.08 3.69-24.48-6.59-29.93-23s-.88-32.63 10.2-36.32 24.49 6.59 29.94 23 .88 32.64-10.21 36.33Z" class="colorbf4434 svgShape"/><path fill="#f46f5c" d="M2934.93 590.15h-6.65v-35.6l24.92-12.58v-35.79h6.65v40.07l-24.92 12.58v31.32z" class="colorf46f5c svgShape"/><path fill="#fed150" d="M2971.69 499.73c0 9.37-7.36 17-16.43 17a17 17 0 0 1 0-33.94c9.07-.03 16.43 7.57 16.43 16.94ZM3034.45 429a16.46 16.46 0 1 1-16.45-17 16.72 16.72 0 0 1 16.45 17Z" class="colorfed150 svgShape"/><path fill="#f46f5c" d="M2989.9 608.48h-6.64V550.4l31.41-14.73V428.95h6.65v111.14l-31.42 14.73v53.66zM2881.89 588.35h-6.65v-31.32l-24.91-12.58v-40.08h6.64v35.8l24.92 12.58v35.6z" class="colorf46f5c svgShape"/><path fill="#fed150" d="M2838.48 497.93a16.45 16.45 0 1 0 16.45-17 16.72 16.72 0 0 0-16.45 17ZM2775.73 437.44a16.46 16.46 0 1 0 16.45-17 16.71 16.71 0 0 0-16.45 17Z" class="colorfed150 svgShape"/><path fill="#f46f5c" d="M2826.92 616.96h-6.64V563.3l-31.43-14.73V437.44h6.65v106.72l31.42 14.72v58.08zM3075.43 645.71H3018v-6.86h50.78v-95.1h6.65v101.96z" class="colorf46f5c svgShape"/><path fill="#fed150" d="M3088.55 543.75a16.45 16.45 0 1 1-16.45-17 16.71 16.71 0 0 1 16.45 17Z" class="colorfed150 svgShape"/><path fill="#f46f5c" d="M2798.2 652.52h-57.42V550.55h6.64v95.11h50.78v6.86z" class="colorf46f5c svgShape"/><path fill="#fed150" d="M2727.66 550.55a16.45 16.45 0 1 0 16.44-17 16.71 16.71 0 0 0-16.44 17Z" class="colorfed150 svgShape"/><path fill="#f46f5c" d="M2934.93 776h-6.65v35.6l24.92 12.58v35.8h6.65V819.9l-24.92-12.58V776z" class="colorf46f5c svgShape"/><path fill="#fed150" d="M2971.69 866.42c0-9.37-7.36-17-16.43-17a17 17 0 0 0 0 33.94c9.07.03 16.43-7.57 16.43-16.94Z" class="colorfed150 svgShape"/><path fill="#f46f5c" d="M2989.9 757.67h-6.64v58.08l31.41 14.73V937.2h6.65V826.06l-31.42-14.72v-53.67zM2881.89 777.8h-6.65v31.32l-24.91 12.59v40.07h6.64v-35.8l24.92-12.58v-35.6z" class="colorf46f5c svgShape"/><path fill="#fed150" d="M2838.48 868.22a16.45 16.45 0 1 1 16.45 17 16.72 16.72 0 0 1-16.45-17ZM2775.73 928.72a16.46 16.46 0 1 1 16.45 17 16.71 16.71 0 0 1-16.45-17Z" class="colorfed150 svgShape"/><path fill="#f46f5c" d="M2826.92 749.19h-6.64v53.67l-31.43 14.72v111.14h6.65V822l31.42-14.73v-58.08zM3075.43 720.44H3018v6.86h50.78v95.11h6.65V720.44z" class="colorf46f5c svgShape"/><path fill="#fed150" d="M3088.55 822.41a16.45 16.45 0 1 0-16.45 17 16.71 16.71 0 0 0 16.45-17Z" class="colorfed150 svgShape"/><path fill="#f46f5c" d="M2798.2 713.63h-57.42V815.6h6.64v-95.11h50.78v-6.86z" class="colorf46f5c svgShape"/><path fill="#fed150" d="M2727.66 815.6a16.45 16.45 0 1 1 16.44 17 16.71 16.71 0 0 1-16.44-17Z" class="colorfed150 svgShape"/><ellipse cx="2909.38" cy="688.52" fill="#f46f5c" rx="124.13" ry="128.05" class="colorf46f5c svgShape"/><path fill="#fed150" d="M3027.2 688.52c0 67.13-52.75 121.55-117.82 121.55s-117.83-54.42-117.83-121.55S2844.31 567 2909.38 567s117.82 54.4 117.82 121.52Z" class="colorfed150 svgShape"/><path fill="#f46f5c" d="M3002.22 688.52c0 52.9-41.56 95.79-92.84 95.79s-92.84-42.89-92.84-95.79 41.56-95.78 92.84-95.78 92.84 42.89 92.84 95.78Z" class="colorf46f5c svgShape"/><path fill="#ffe984" d="M2998.31 692.56c0 50.66-39.81 91.75-88.93 91.75s-88.94-41.09-88.94-91.75 39.82-91.75 88.94-91.75 88.93 41.08 88.93 91.75Z" class="colorffe984 svgShape"/><path fill="#f46f5c" d="M2930.33 686.13v-.31c11.32-4.31 16.54-12.92 16.54-22.15a22.63 22.63 0 0 0-12.08-20.29 37.08 37.08 0 0 0-14.31-4.93v-15.78h-10.59v14.93c-1.52-.05-3.1-.07-4.76-.07-2.44 0-4.91.05-7.35.13v-15h-10.6v15.58a99.56 99.56 0 0 0-11.42 1.44v101.8c2.81.43 6.67.85 11.42 1.15v13.55h10.6V743h2.58c3.4 0 6.56-.1 9.53-.3v13.46h10.59V741.5c8.69-1.54 14.95-4.21 19.38-7.85a27.9 27.9 0 0 0 10.44-22c0-13.37-8.5-22.29-19.97-25.52Zm-32.06-30.91a60.08 60.08 0 0 1 9.69-.61c10.29 0 16.1 4.15 16.1 12 0 7.69-6.41 12.77-18.34 12.77h-7.45Zm8.79 70.43a69 69 0 0 1-8.79-.31v-29.21h7.73c11.32 0 20.42 4.15 20.42 14.61.03 10.91-9.07 14.91-19.36 14.91ZM2173.68 731.47h-3.83v-20.53l14.37-7.26v-20.64h3.83v23.11l-14.37 7.26v18.06z" class="colorf46f5c svgShape"/><path fill="#fed150" d="M2194.88 679.32a9.49 9.49 0 1 1-9.48-9.78 9.63 9.63 0 0 1 9.48 9.78ZM2231.08 638.5a9.49 9.49 0 1 1-9.49-9.78 9.64 9.64 0 0 1 9.49 9.78Z" class="colorfed150 svgShape"/><path fill="#f46f5c" d="M2205.38 742.04h-3.83v-33.49l18.12-8.5V638.5h3.84v64.1l-18.13 8.49v30.95zM2143.09 730.44h-3.83v-18.07l-14.37-7.26V682h3.83v20.65l14.37 7.25v20.54z" class="colorf46f5c svgShape"/><path fill="#fed150" d="M2118.05 678.29a9.49 9.49 0 1 0 9.49-9.79 9.64 9.64 0 0 0-9.49 9.79ZM2081.86 643.39a9.49 9.49 0 1 0 9.49-9.78 9.64 9.64 0 0 0-9.49 9.78Z" class="colorfed150 svgShape"/><path fill="#f46f5c" d="M2111.38 746.94h-3.83v-30.95l-18.12-8.5v-64.1h3.83v61.56l18.12 8.49v33.5zM2254.71 763.52h-33.12v-3.96h29.29v-54.85h3.83v58.81z" class="colorf46f5c svgShape"/><path fill="#fed150" d="M2262.28 704.71a9.49 9.49 0 1 1-9.49-9.79 9.63 9.63 0 0 1 9.49 9.79Z" class="colorfed150 svgShape"/><path fill="#f46f5c" d="M2094.82 767.44h-33.12v-58.81h3.83v54.86h29.29v3.95z" class="colorf46f5c svgShape"/><path fill="#fed150" d="M2054.13 708.64a9.49 9.49 0 1 0 9.49-9.79 9.64 9.64 0 0 0-9.49 9.79Z" class="colorfed150 svgShape"/><path fill="#f46f5c" d="M2173.68 838.66h-3.83v20.54l14.37 7.25v20.65h3.83v-23.11l-14.37-7.26v-18.07z" class="colorf46f5c svgShape"/><path fill="#fed150" d="M2194.88 890.81a9.49 9.49 0 1 0-9.48 9.79 9.63 9.63 0 0 0 9.48-9.79Z" class="colorfed150 svgShape"/><path fill="#f46f5c" d="M2205.38 828.09h-3.83v33.5l18.12 8.49v61.56h3.84v-64.1l-18.13-8.5v-30.95zM2143.09 839.7h-3.83v18.06l-14.37 7.26v23.11h3.83v-20.64l14.37-7.26V839.7z" class="colorf46f5c svgShape"/><path fill="#fed150" d="M2118.05 891.85a9.49 9.49 0 1 1 9.49 9.79 9.64 9.64 0 0 1-9.49-9.79ZM2081.86 926.74a9.49 9.49 0 1 1 9.49 9.79 9.64 9.64 0 0 1-9.49-9.79Z" class="colorfed150 svgShape"/><path fill="#f46f5c" d="M2111.38 823.2h-3.83v30.95l-18.12 8.49v64.1h3.83v-61.55l18.12-8.49v-33.5zM2254.71 806.62h-33.12v3.96h29.29v54.85h3.83v-58.81z" class="colorf46f5c svgShape"/><path fill="#fed150" d="M2262.28 865.43a9.49 9.49 0 1 0-9.49 9.78 9.64 9.64 0 0 0 9.49-9.78Z" class="colorfed150 svgShape"/><path fill="#f46f5c" d="M2094.82 802.69h-33.12v58.81h3.83v-54.85h29.29v-3.96z" class="colorf46f5c svgShape"/><path fill="#fed150" d="M2054.13 861.5a9.49 9.49 0 1 1 9.49 9.79 9.64 9.64 0 0 1-9.49-9.79Z" class="colorfed150 svgShape"/><ellipse cx="2158.94" cy="788.21" fill="#f46f5c" rx="71.59" ry="73.85" class="colorf46f5c svgShape"/><path fill="#fed150" d="M2226.9 788.21c0 38.71-30.43 70.1-68 70.1s-68-31.39-68-70.1 30.43-70.1 68-70.1 68 31.39 68 70.1Z" class="colorfed150 svgShape"/><path fill="#f46f5c" d="M2212.49 788.21c0 30.51-24 55.24-53.55 55.24s-53.55-24.73-53.55-55.24 24-55.24 53.55-55.24 53.55 24.73 53.55 55.24Z" class="colorf46f5c svgShape"/><path fill="#ffe984" d="M2210.23 790.54c0 29.22-23 52.91-51.29 52.91s-51.29-23.69-51.29-52.91 23-52.92 51.29-52.92 51.29 23.69 51.29 52.92Z" class="colorffe984 svgShape"/><path fill="#f46f5c" d="M2171 786.83v-.18c6.54-2.48 9.54-7.45 9.54-12.77a13.06 13.06 0 0 0-7-11.71 21.49 21.49 0 0 0-8.25-2.84v-9.1h-6.12v8.61h-2.74c-1.41 0-2.83 0-4.24.07v-8.64h-6.11v9a61.26 61.26 0 0 0-6.59.83v58.72c1.62.24 3.85.49 6.59.66v7.82h6.11v-7.6h1.49c2 0 3.78-.06 5.49-.17v7.76h6.12v-8.47c5-.89 8.62-2.43 11.17-4.53a16.1 16.1 0 0 0 6-12.69c.08-7.76-4.82-12.91-11.46-14.77ZM2152.53 769a35.92 35.92 0 0 1 5.59-.35c5.94 0 9.29 2.39 9.29 6.92s-3.7 7.36-10.58 7.36h-4.3Zm5.08 40.63a39.6 39.6 0 0 1-5.08-.18v-16.86h4.47c6.53 0 11.78 2.4 11.78 8.43.01 6.3-5.24 8.61-11.17 8.61Z" class="colorf46f5c svgShape"/></g></svg>